<?xml version="1.0" encoding="utf-8"?>
<!-- Generator: Adobe Illustrator 16.0.0, SVG Export Plug-In . SVG Version: 6.00 Build 0)  -->
<!DOCTYPE svg PUBLIC "-//W3C//DTD SVG 1.1//EN" "http://www.w3.org/Graphics/SVG/1.1/DTD/svg11.dtd">
<svg version="1.1" id="Layer_1" xmlns="http://www.w3.org/2000/svg" xmlns:xlink="http://www.w3.org/1999/xlink" x="0px" y="0px"
	 width="20.5px" height="20.562px" viewBox="1.542 10.375 20.5 20.562" enable-background="new 1.542 10.375 20.5 20.562"
	 xml:space="preserve">
<circle fill="#C50000" stroke="#FFFFFF" stroke-width="0.55" cx="11.817" cy="20.619" r="9.919"/>
<path fill="#C50000" stroke="#FFFFFF" stroke-width="0.55" d="M5.648,20.627c-0.005-4.281,3.461-7.761,7.741-7.765
	c4.285-0.005,7.759,3.46,7.765,7.742c0.007,4.282-3.457,7.76-7.741,7.764C9.131,28.374,5.653,24.908,5.648,20.627z"/>
<circle fill="#C50000" stroke="#FFFFFF" stroke-width="0.55" cx="14.505" cy="20.612" r="5.899"/>
<circle fill="#C50000" stroke="#FFFFFF" stroke-width="0.55" cx="13.825" cy="20.611" r="4.371"/>
<path fill="#C50000" stroke="#FFFFFF" stroke-width="0.55" d="M9.787,20.617c-0.003-1.816,1.467-3.288,3.281-3.29
	c1.813,0,3.288,1.468,3.289,3.279c0.004,1.814-1.467,3.289-3.281,3.294C11.264,23.9,9.79,22.433,9.787,20.617z"/>
<path fill="#C50000" stroke="#FFFFFF" stroke-width="0.55" d="M9.787,20.617c-0.004-1.159,0.937-2.098,2.093-2.101
	c1.159-0.003,2.1,0.936,2.103,2.093c-0.002,1.158-0.938,2.098-2.097,2.1C10.731,22.711,9.788,21.775,9.787,20.617z"/>
</svg>
